ffmpeg started on 2016-11-27 at 13:48:43
Report written to "Output/NVENCh264/results/ffmpeg/sintelllhq12000k.log"
Command line:
Tools/ffmpeg/ffmpeg -benchmark -y -i Input/y4m/sintel.y4m -c:v h264_nvenc -preset llhq -b:v 12000k -an Output/NVENCh264/encoded/sintelllhq12000k.mkv
ffmpeg version N-82227-gdb23fde Copyright (c) 2000-2016 the FFmpeg developers
  built with gcc 5.4.0 (Ubuntu 5.4.0-6ubuntu1~16.04.2) 20160609
  configuration: --prefix=/home/jaroslav/ffmpeg_build --pkg-config-flags=--static --extra-cflags=-I/home/jaroslav/ffmpeg_build/include --extra-ldflags=-L/home/jaroslav/ffmpeg_build/lib --bindir=/home/jaroslav/bin --enable-gpl --enable-libass --enable-libfdk-aac --enable-libfreetype --enable-libmp3lame --enable-libopus --enable-libtheora --enable-libvorbis --enable-libvpx --enable-libx264 --enable-libx265 --enable-nvenc --enable-libmfx --enable-libxvid --enable-libgsm --enable-libopencore-amrnb --enable-version3 --enable-nonfree
  libavutil      55. 35.100 / 55. 35.100
  libavcodec     57. 66.101 / 57. 66.101
  libavformat    57. 57.100 / 57. 57.100
  libavdevice    57.  2.100 / 57.  2.100
  libavfilter     6. 66.100 /  6. 66.100
  libswscale      4.  3.100 /  4.  3.100
  libswresample   2.  4.100 /  2.  4.100
  libpostproc    54.  2.100 / 54.  2.100
Input #0, yuv4mpegpipe, from 'Input/y4m/sintel.y4m':
  Duration: 00:00:20.83, start: 0.000000, bitrate: 2057307 kb/s
    Stream #0:0: Video: rawvideo (I420 / 0x30323449), yuv420p(progressive), 4096x1744, SAR 1:1 DAR 256:109, 24 fps, 24 tbr, 24 tbn, 24 tbc
[h264_nvenc @ 0x45dd1c0] The variable bitrate rate-control requires the 'qmin' and/or 'qmax' option set.
Output #0, matroska, to 'Output/NVENCh264/encoded/sintelllhq12000k.mkv':
  Metadata:
    encoder         : Lavf57.57.100
    Stream #0:0: Video: h264 (h264_nvenc) (Main) (H264 / 0x34363248), yuv420p, 4096x1744 [SAR 1:1 DAR 256:109], q=-1--1, 12000 kb/s, 24 fps, 1k tbn, 24 tbc
    Metadata:
      encoder         : Lavc57.66.101 h264_nvenc
    Side data:
      cpb: bitrate max/min/avg: 0/0/12000000 buffer size: 24000000 vbv_delay: -1
Stream mapping:
  Stream #0:0 -> #0:0 (rawvideo (native) -> h264 (h264_nvenc))
Press [q] to stop, [?] for help
frame=   17 fps=0.0 q=0.0 size=       0kB time=00:00:00.00 bitrate=N/A speed=   0x    frame=   38 fps= 38 q=33.0 size=       1kB time=00:00:00.29 bitrate=  20.5kbits/s speed=0.29x    frame=   59 fps= 39 q=33.0 size=       1kB time=00:00:01.16 bitrate=   5.1kbits/s speed=0.767x    frame=   80 fps= 39 q=30.0 size=       1kB time=00:00:02.04 bitrate=   2.9kbits/s speed=1.01x    frame=  101 fps= 40 q=30.0 size=       1kB time=00:00:02.91 bitrate=   2.1kbits/s speed=1.15x    frame=  121 fps= 40 q=27.0 size=    5166kB time=00:00:03.75 bitrate=11281.6kbits/s speed=1.23x    frame=  142 fps= 40 q=26.0 size=    5166kB time=00:00:04.62 bitrate=9147.7kbits/s speed= 1.3x    frame=  163 fps= 40 q=30.0 size=    6894kB time=00:00:05.50 bitrate=10266.4kbits/s speed=1.35x    frame=  165 fps= 24 q=30.0 size=    6894kB time=00:00:05.58 bitrate=10113.8kbits/s speed=0.822x    frame=  166 fps= 16 q=30.0 size=    6894kB time=00:00:05.62 bitrate=10038.3kbits/s speed=0.551x    frame=  167 fps= 15 q=30.0 size=    6894kB time=00:00:05.66 bitrate=9963.9kbits/s speed=0.526x    frame=  188 fps= 17 q=29.0 size=    6894kB time=00:00:06.54 bitrate=8631.4kbits/s speed=0.579x    frame=  209 fps= 18 q=26.0 size=    6894kB time=00:00:07.41 bitrate=7613.3kbits/s speed=0.628x    frame=  230 fps= 19 q=27.0 size=   12039kB time=00:00:08.29 bitrate=11892.3kbits/s speed=0.673x    frame=  250 fps= 20 q=30.0 size=   12039kB time=00:00:09.12 bitrate=10806.8kbits/s speed=0.712x    frame=  271 fps= 20 q=27.0 size=   12039kB time=00:00:10.00 bitrate=9861.3kbits/s speed=0.75x    frame=  292 fps= 21 q=25.0 size=   12039kB time=00:00:10.87 bitrate=9067.9kbits/s speed=0.786x    frame=  312 fps= 22 q=27.0 size=   16025kB time=00:00:11.70 bitrate=11211.9kbits/s speed=0.816x    frame=  333 fps= 22 q=25.0 size=   16025kB time=00:00:12.58 bitrate=10432.3kbits/s speed=0.847x    frame=  352 fps= 23 q=24.0 size=   16025kB time=00:00:13.37 bitrate=9814.6kbits/s speed=0.87x    frame=  373 fps= 23 q=23.0 size=   16025kB time=00:00:14.25 bitrate=9212.0kbits/s speed=0.897x    frame=  393 fps= 24 q=25.0 size=   21152kB time=00:00:15.08 bitrate=11487.2kbits/s speed=0.921x    frame=  414 fps= 25 q=23.0 size=   21152kB time=00:00:15.95 bitrate=10857.4kbits/s speed=0.945x    frame=  435 fps= 25 q=28.0 size=   21152kB time=00:00:16.83 bitrate=10293.1kbits/s speed=0.967x    frame=  456 fps= 25 q=25.0 size=   25504kB time=00:00:17.70 bitrate=11797.7kbits/s speed=0.988x    frame=  477 fps= 26 q=27.0 size=   25504kB time=00:00:18.58 bitrate=11242.2kbits/s speed=1.01x    frame=  495 fps= 26 q=25.0 size=   25504kB time=00:00:19.33 bitrate=10806.1kbits/s speed=1.01x    frame=  500 fps= 26 q=28.0 Lsize=   30549kB time=00:00:20.79 bitrate=12035.5kbits/s speed=1.07x    
video:30544kB audio:0kB subtitle:0kB other streams:0kB global headers:0kB muxing overhead: 0.015932%
bench: utime=0.948s
bench: maxrss=1198540kB
